<?xml version="1.0" encoding="UTF-8"?>
<svg id="Layer_1" xmlns="http://www.w3.org/2000/svg" version="1.1" viewBox="0 0 330 780.94">
  <!-- Generator: Adobe Illustrator 29.4.0, SVG Export Plug-In . SVG Version: 2.1.0 Build 152)  -->
  <defs>
    <style>
      .st0 {
        fill: #fff;
        isolation: isolate;
        opacity: .1;
      }
    </style>
  </defs>
  <polygon class="st0" points="330.11 121.47 309.45 142.13 288.78 121.47 268.12 142.13 288.78 162.79 268.12 183.46 288.78 204.11 268.12 224.78 288.78 245.44 309.45 224.78 330.11 245.44 330.11 204.11 309.45 183.46 330.11 162.79 330.11 121.47"/>
  <polygon class="st0" points="309.84 680.14 289.18 700.81 268.51 680.14 247.85 700.81 227.18 680.14 206.53 700.81 185.86 680.14 165.2 700.81 144.54 680.14 123.87 700.81 103.21 680.14 82.55 700.81 61.89 680.14 41.22 700.81 20.56 680.14 -.1 700.81 -.1 742.13 20.56 762.79 41.22 742.13 61.89 762.79 82.55 742.13 103.21 762.79 123.87 742.13 144.54 762.79 165.2 742.13 185.86 762.79 206.53 742.13 227.18 762.79 247.85 742.13 268.51 762.79 289.18 742.13 309.84 762.79 330.5 742.13 330.5 700.81 309.84 680.14"/>
  <polygon class="st0" points="247.45 493.39 226.8 514.06 206.13 493.39 185.47 514.06 164.81 534.72 144.14 514.06 123.48 493.39 102.82 514.06 82.16 493.39 61.49 514.06 82.16 534.72 61.49 555.38 82.16 576.05 102.82 596.71 123.48 617.38 144.14 638.03 164.81 658.7 185.47 638.03 206.13 617.38 226.8 596.71 247.45 576.05 268.12 555.38 247.45 534.72 268.12 514.06 247.45 493.39"/>
  <path class="st0" d="M206.13,121.47l-20.66,20.67-20.67-20.67-20.67,20.67-20.66-20.67-20.67,20.67,20.67,20.66-20.67,20.67,20.67,20.66-20.67,20.67,20.67,20.66,20.66-20.66,20.67,20.66,20.67-20.66,20.66,20.66,20.67-20.66-20.67-20.67,20.67-20.66-20.67-20.67,20.67-20.66-20.67-20.67ZM164.81,204.11l-20.67-20.66,20.67-20.67,20.67,20.67-20.67,20.66Z"/>
  <polygon class="st0" points="40.83 245.44 61.49 224.78 40.83 204.11 61.49 183.46 40.83 162.79 61.49 142.13 40.83 121.47 20.17 142.13 -.5 121.47 -.5 162.79 20.17 183.46 -.5 204.11 -.5 245.44 20.17 224.78 40.83 245.44"/>
  <polygon class="st0" points="40.83 452.07 61.49 472.74 82.16 452.07 102.82 472.74 123.48 452.07 144.14 472.74 164.81 452.07 185.47 472.74 206.13 452.07 226.8 472.74 247.45 452.07 268.12 472.74 288.78 452.07 309.45 472.74 330.11 452.07 330.11 410.74 309.45 390.08 288.78 410.74 268.12 390.08 247.45 410.74 226.8 390.08 206.13 410.74 185.47 390.08 164.81 410.74 144.14 390.08 123.48 410.74 102.82 390.08 82.16 410.74 61.49 390.08 40.83 410.74 20.17 390.08 -.5 410.74 -.5 452.07 20.17 472.74 40.83 452.07"/>
  <polygon class="st0" points="40.83 80.14 61.49 100.8 82.16 80.14 102.82 100.8 123.48 80.14 144.14 100.8 164.81 80.14 185.47 100.8 206.13 80.14 226.8 100.8 247.45 80.14 268.12 100.8 288.78 80.14 309.45 100.8 330.11 80.14 330.11 38.82 309.45 18.15 288.78 38.82 268.12 18.15 247.45 38.82 226.8 18.15 206.13 38.82 185.47 18.15 164.81 38.82 144.14 18.15 123.48 38.82 102.82 18.15 82.16 38.82 61.49 18.15 40.83 38.82 20.17 18.15 -.5 38.82 -.5 80.14 20.17 100.8 40.83 80.14"/>
  <polygon class="st0" points="40.83 328.1 61.49 348.75 82.16 328.1 102.82 348.75 123.48 328.1 144.14 348.75 164.81 328.1 185.47 348.75 206.13 328.1 226.8 348.75 247.45 328.1 268.12 348.75 288.78 328.1 309.45 348.75 330.11 328.1 330.11 286.77 309.45 266.11 288.78 286.77 268.12 266.11 247.45 286.77 226.8 266.11 206.13 286.77 185.47 266.11 164.81 286.77 144.14 266.11 123.48 286.77 102.82 266.11 82.16 286.77 61.49 266.11 40.83 286.77 20.17 266.11 -.5 286.77 -.5 328.1 20.17 348.75 40.83 328.1"/>
</svg>